<svg version="1.0" xmlns="http://www.w3.org/2000/svg" viewBox="0 0 408.000000 64.000000"
     preserveAspectRatio="xMidYMid meet">

    <g transform="translate(0.000000,64.000000) scale(0.100000,-0.100000)"
       fill="#000000" stroke="none">
        <path d="M0 320 l0 -320 2040 0 2040 0 0 320 0 320 -2040 0 -2040 0 0 -320z
m432 123 l3 -128 29 43 c25 37 33 42 67 42 22 0 39 -4 39 -10 0 -5 -15 -10
-33 -10 -29 0 -38 -7 -68 -50 -53 -78 -59 -70 -59 85 l0 135 -40 0 c-40 0 -40
0 -40 -39 0 -22 -4 -43 -10 -46 -6 -4 -10 15 -10 49 l0 56 60 0 59 0 3 -127z
m-72 77 c0 -5 -2 -10 -4 -10 -3 0 -8 5 -11 10 -3 6 -1 10 4 10 6 0 11 -4 11
-10z m30 0 c0 -5 -2 -10 -4 -10 -3 0 -8 5 -11 10 -3 6 -1 10 4 10 6 0 11 -4
11 -10z m140 -44 c0 -58 -18 -69 -22 -14 -3 40 -5 43 -38 49 -33 6 -32 6 13 8
l47 1 0 -44z m-170 14 c0 -5 -4 -10 -10 -10 -5 0 -10 5 -10 10 0 6 5 10 10 10
6 0 10 -4 10 -10z m30 0 c0 -5 -4 -10 -10 -10 -5 0 -10 5 -10 10 0 6 5 10 10
10 6 0 10 -4 10 -10z m70 -10 c0 -5 -2 -10 -4 -10 -3 0 -8 5 -11 10 -3 6 -1
10 4 10 6 0 11 -4 11 -10z m30 0 c0 -5 -2 -10 -4 -10 -3 0 -8 5 -11 10 -3 6
-1 10 4 10 6 0 11 -4 11 -10z m1470 -56 l0 -55 26 20 c34 26 54 26 88 0 25
-19 26 -25 26 -115 0 -94 0 -94 -25 -94 -24 0 -25 3 -26 63 -1 86 -10 111 -39
115 -37 6 -50 -22 -50 -105 l0 -73 -30 0 -30 0 0 150 0 150 30 0 c30 0 30 0
30 -56z m610 36 c0 -16 -7 -20 -30 -20 -23 0 -30 4 -30 20 0 16 7 20 30 20 23
0 30 -4 30 -20z m110 -130 l0 -150 -25 0 -25 0 0 150 0 150 25 0 25 0 0 -150z
m120 0 l0 -150 -30 0 -30 0 0 150 0 150 30 0 30 0 0 -150z m-1830 115 c0 -24
-2 -25 -75 -25 l-75 0 0 -45 0 -45 75 0 c68 0 75 -2 75 -20 0 -18 -7 -20 -75
-20 l-75 0 0 -55 c0 -54 0 -55 -30 -55 l-30 0 0 145 0 145 105 0 105 0 0 -25z
m2887 3 c16 -15 23 -33 23 -57 0 -30 -9 -44 -60 -93 -33 -31 -60 -59 -60 -62
0 -3 29 -6 65 -6 63 0 65 -1 65 -25 l0 -25 -105 0 c-90 0 -105 2 -105 16 0 28
37 78 90 123 39 33 50 49 50 71 0 39 -36 52 -61 21 -20 -25 -69 -29 -69 -6 0
9 11 27 25 40 33 34 108 35 142 3z m-3397 2 c0 -5 -4 -10 -10 -10 -5 0 -10 5
-10 10 0 6 5 10 10 10 6 0 10 -4 10 -10z m30 0 c0 -5 -4 -10 -10 -10 -5 0 -10
5 -10 10 0 6 5 10 10 10 6 0 10 -4 10 -10z m-95 -10 c-3 -5 -31 -10 -61 -10
l-54 0 0 -40 0 -40 45 0 c25 0 45 -4 45 -10 0 -5 -20 -10 -45 -10 -41 0 -45
-2 -45 -25 0 -14 -4 -25 -10 -25 -11 0 -14 152 -3 163 11 11 135 8 128 -3z
m745 -55 c0 -18 -5 -25 -19 -25 -34 0 -51 -38 -51 -112 l0 -68 -30 0 -30 0 0
110 0 110 30 0 c20 0 30 -5 30 -15 0 -12 4 -11 20 5 28 28 50 26 50 -5z m197
-8 c12 -12 25 -39 28 -59 l7 -38 -71 0 c-73 0 -80 -5 -65 -44 7 -18 59 -22 69
-6 3 6 17 10 31 10 29 0 31 -13 4 -40 -15 -15 -33 -20 -70 -20 -80 0 -109 38
-101 135 4 43 18 65 54 81 40 18 85 10 114 -19z m247 12 c25 -19 26 -25 26
-115 0 -94 0 -94 -25 -94 -24 0 -25 3 -26 63 -1 86 -10 111 -39 115 -37 6 -50
-22 -50 -105 l0 -73 -30 0 -30 0 0 110 0 110 30 0 c21 0 30 -5 30 -16 0 -13 5
-12 26 5 15 12 34 21 44 21 10 0 29 -9 44 -21z m221 7 c29 -12 55 -41 55 -60
0 -15 -58 -4 -73 14 -20 24 -31 25 -51 4 -19 -19 -22 -104 -4 -122 19 -19 56
-14 63 8 7 21 30 26 54 11 10 -7 11 -13 2 -29 -16 -30 -43 -42 -96 -42 -75 0
-103 40 -96 135 4 43 18 65 54 80 41 18 50 18 92 1z m1206 -12 c15 -13 19 -31
19 -81 0 -50 4 -67 20 -83 12 -12 18 -25 15 -30 -10 -17 -63 -11 -74 7 -9 17
-10 17 -28 0 -29 -25 -88 -22 -107 5 -38 54 -4 108 68 108 50 0 62 10 46 40
-13 24 -33 26 -50 5 -13 -15 -70 -21 -70 -7 1 15 27 42 51 52 32 13 87 5 110
-16z m192 12 c15 -8 27 -11 27 -5 0 5 14 9 30 9 l30 0 0 -124 c0 -118 -1 -127
-24 -153 -21 -24 -31 -28 -79 -28 -40 0 -61 5 -76 19 -28 25 -27 32 6 41 19 4
29 2 35 -9 11 -19 49 -21 66 -4 7 7 12 25 12 41 0 27 -1 28 -22 13 -65 -45
-128 3 -128 96 0 53 17 89 50 105 32 16 39 16 73 -1z m304 -19 c12 -12 25 -39
28 -59 l7 -38 -71 0 c-73 0 -80 -5 -65 -44 7 -18 59 -22 69 -6 3 6 17 10 31
10 29 0 31 -13 4 -40 -15 -15 -33 -20 -70 -20 -80 0 -109 38 -101 135 4 43 18
65 54 81 40 18 85 10 114 -19z m-1176 -49 c12 -40 24 -76 28 -80 3 -4 17 29
30 73 23 75 25 79 52 79 16 0 29 -3 29 -7 0 -5 -16 -54 -37 -110 l-37 -103
-36 0 -35 0 -34 98 c-19 53 -36 103 -39 110 -3 8 6 12 27 12 29 0 31 -3 52
-72z m239 -38 l0 -110 -30 0 -30 0 0 110 0 110 30 0 30 0 0 -110z m-2000 40
c0 -15 -7 -20 -25 -20 -14 0 -25 -4 -25 -10 0 -5 11 -10 25 -10 14 0 25 -5 25
-11 0 -6 -14 -9 -32 -7 -25 2 -33 8 -33 23 0 13 8 21 23 23 31 5 28 20 -5 25
-23 3 -21 4 10 6 31 1 37 -2 37 -19z m-337 -117 c-27 -5 -31 -22 -5 -24 15 -1
15 -2 0 -6 -9 -2 -19 -12 -21 -21 -3 -9 -5 0 -6 21 -1 34 1 37 27 36 23 -2 24
-2 5 -6z m60 -1 c-6 -4 -13 -21 -16 -37 -4 -27 -4 -27 -6 8 -1 29 3 37 17 37
11 0 13 -3 5 -8z m75 1 c-10 -2 -18 -9 -18 -14 0 -5 8 -10 18 -10 16 -1 16 -2
0 -6 -10 -2 -18 -8 -18 -13 0 -5 8 -11 18 -13 13 -4 11 -5 -5 -6 -20 -1 -23 4
-23 34 0 30 3 35 23 34 16 -1 18 -2 5 -6z m140 -4 c-10 -5 -19 -20 -19 -32 -1
-18 -2 -18 -6 -4 -5 20 13 47 31 47 6 0 3 -5 -6 -11z m101 -26 c-1 -21 -3 -30
-6 -20 -2 9 -13 17 -23 17 -10 0 -21 -8 -23 -17 -3 -10 -5 -2 -5 17 0 19 2 29
5 23 7 -18 43 -16 43 2 0 8 2 15 5 15 3 0 4 -17 4 -37z m-293 -2 c-1 -17 -5
-26 -9 -21 -5 4 -6 17 -2 29 9 29 12 26 11 -8z m115 13 c12 -14 14 -14 20 3 6
13 8 8 8 -17 l0 -35 -22 29 -21 30 -7 -25 c-7 -24 -7 -24 -8 4 -1 30 10 35 30
11z m96 -40 c-3 -3 -12 -4 -19 -1 -8 3 -5 6 6 6 11 1 17 -2 13 -5z"/>
        <path d="M1242 358 c-24 -24 -13 -38 28 -38 26 0 40 5 40 13 0 18 -21 37 -40
37 -9 0 -21 -5 -28 -12z"/>
        <path d="M2905 260 c-14 -43 32 -56 59 -18 23 32 20 38 -18 38 -26 0 -36 -5
-41 -20z"/>
        <path d="M3160 350 c-18 -18 -21 -30 -17 -67 7 -61 38 -81 72 -47 24 25 17
102 -12 121 -19 13 -24 12 -43 -7z"/>
        <path d="M3412 358 c-24 -24 -13 -38 28 -38 26 0 40 5 40 13 0 18 -21 37 -40
37 -9 0 -21 -5 -28 -12z"/>
    </g>
</svg>
